<mxfile host="app.diagrams.net" agent="Mozilla/5.0 (Windows NT 10.0; Win64; x64; rv:128.0) Gecko/20100101 Firefox/128.0" version="24.8.8">
  <diagram name="Seite-1" id="cIDOGWYvVzSzvH49cVRE">
    <mxGraphModel dx="2514" dy="2089" grid="1" gridSize="10" guides="1" tooltips="1" connect="1" arrows="1" fold="1" page="1" pageScale="1" pageWidth="827" pageHeight="1169" math="0" shadow="0">
      <root>
        <mxCell id="0" />
        <mxCell id="1" parent="0" />
        <mxCell id="AjrS4u9YngEpX_1BVrvA-27" value="" style="endArrow=none;html=1;rounded=1;strokeWidth=3;entryX=0.483;entryY=1.009;entryDx=0;entryDy=0;entryPerimeter=0;fillColor=#dae8fc;strokeColor=#6c8ebf;exitX=-0.043;exitY=0.508;exitDx=0;exitDy=0;exitPerimeter=0;" parent="1" edge="1">
          <mxGeometry width="50" height="50" relative="1" as="geometry">
            <mxPoint x="480" y="330" as="sourcePoint" />
            <mxPoint x="419.6600000000001" y="250.18000000000006" as="targetPoint" />
            <Array as="points">
              <mxPoint x="440" y="330" />
              <mxPoint x="420" y="290" />
              <mxPoint x="420" y="250" />
            </Array>
          </mxGeometry>
        </mxCell>
        <mxCell id="AjrS4u9YngEpX_1BVrvA-295" value="" style="rounded=1;whiteSpace=wrap;html=1;fillColor=#f5f5f5;fontColor=#333333;strokeColor=#666666;" parent="1" vertex="1">
          <mxGeometry x="-210" y="-75" width="1400" height="710" as="geometry" />
        </mxCell>
        <mxCell id="AjrS4u9YngEpX_1BVrvA-300" value="" style="rounded=1;whiteSpace=wrap;html=1;fillColor=#f5f5f5;strokeColor=#666666;gradientColor=#b3b3b3;" parent="1" vertex="1">
          <mxGeometry x="-170" y="450" width="280" height="90" as="geometry" />
        </mxCell>
        <mxCell id="AjrS4u9YngEpX_1BVrvA-301" value="" style="rounded=1;whiteSpace=wrap;html=1;fillColor=#cce5ff;strokeColor=#36393d;gradientColor=#ffffff;" parent="1" vertex="1">
          <mxGeometry x="480" y="40" width="360" height="480" as="geometry" />
        </mxCell>
        <mxCell id="AjrS4u9YngEpX_1BVrvA-302" value="" style="rounded=1;whiteSpace=wrap;html=1;fillColor=#cce5ff;strokeColor=#000000;gradientColor=#ffffff;" parent="1" vertex="1">
          <mxGeometry x="340" y="40" width="130" height="360" as="geometry" />
        </mxCell>
        <mxCell id="AjrS4u9YngEpX_1BVrvA-303" value="" style="rounded=1;whiteSpace=wrap;html=1;fillColor=#cce5ff;strokeColor=#36393d;gradientColor=#ffffff;" parent="1" vertex="1">
          <mxGeometry x="150" y="40" width="180" height="360" as="geometry" />
        </mxCell>
        <mxCell id="AjrS4u9YngEpX_1BVrvA-385" value="" style="endArrow=none;html=1;rounded=1;strokeWidth=5;fillColor=#dae8fc;strokeColor=#6c8ebf;entryX=0;entryY=0.5;entryDx=0;entryDy=0;" parent="1" edge="1">
          <mxGeometry width="50" height="50" relative="1" as="geometry">
            <mxPoint x="120" y="185" as="sourcePoint" />
            <mxPoint x="200" y="184.54999999999995" as="targetPoint" />
          </mxGeometry>
        </mxCell>
        <mxCell id="AjrS4u9YngEpX_1BVrvA-386" value="" style="endArrow=none;html=1;rounded=1;strokeWidth=5;entryX=0;entryY=0.5;entryDx=0;entryDy=0;fillColor=#dae8fc;strokeColor=#6c8ebf;" parent="1" target="AjrS4u9YngEpX_1BVrvA-434" edge="1">
          <mxGeometry width="50" height="50" relative="1" as="geometry">
            <mxPoint x="220" y="184.38000000000002" as="sourcePoint" />
            <mxPoint x="370.0000000000001" y="184.55" as="targetPoint" />
          </mxGeometry>
        </mxCell>
        <mxCell id="AjrS4u9YngEpX_1BVrvA-387" value="" style="endArrow=none;html=1;rounded=1;strokeWidth=5;fillColor=#e1d5e7;strokeColor=#9673a6;entryX=0;entryY=0.5;entryDx=0;entryDy=0;exitX=1;exitY=0.5;exitDx=0;exitDy=0;" parent="1" source="AjrS4u9YngEpX_1BVrvA-434" edge="1">
          <mxGeometry width="50" height="50" relative="1" as="geometry">
            <mxPoint x="390.0000000000001" y="190" as="sourcePoint" />
            <mxPoint x="509.9999999999998" y="184.54999999999995" as="targetPoint" />
            <Array as="points" />
          </mxGeometry>
        </mxCell>
        <mxCell id="AjrS4u9YngEpX_1BVrvA-389" value="&lt;font style=&quot;font-size: 14px;&quot;&gt;FastP&lt;/font&gt;" style="text;html=1;align=center;verticalAlign=middle;whiteSpace=wrap;rounded=0;rotation=0;fontStyle=1;fontSize=14;" parent="1" vertex="1">
          <mxGeometry x="180" y="144.55" width="60" height="30" as="geometry" />
        </mxCell>
        <mxCell id="AjrS4u9YngEpX_1BVrvA-390" value="&lt;font style=&quot;font-size: 14px;&quot;&gt;Kraken2&lt;/font&gt;" style="text;html=1;align=center;verticalAlign=middle;whiteSpace=wrap;rounded=0;rotation=0;fontStyle=1;fontSize=14;" parent="1" vertex="1">
          <mxGeometry x="235" y="292.28" width="60" height="30" as="geometry" />
        </mxCell>
        <mxCell id="AjrS4u9YngEpX_1BVrvA-392" value="&lt;div style=&quot;font-size: 14px;&quot;&gt;&lt;font style=&quot;font-size: 14px;&quot;&gt;SPAdes/&lt;/font&gt;&lt;font style=&quot;font-size: 14px;&quot;&gt;shovill/skesa&lt;/font&gt;&lt;/div&gt;" style="text;html=1;align=center;verticalAlign=middle;whiteSpace=wrap;rounded=0;rotation=0;fontStyle=1;fontSize=14;" parent="1" vertex="1">
          <mxGeometry x="352.5" y="144.55" width="105" height="30" as="geometry" />
        </mxCell>
        <mxCell id="AjrS4u9YngEpX_1BVrvA-397" value="&lt;font style=&quot;font-size: 14px;&quot;&gt;assembly-scan&lt;/font&gt;" style="text;html=1;align=center;verticalAlign=middle;whiteSpace=wrap;rounded=0;fontStyle=1;fontSize=14;" parent="1" vertex="1">
          <mxGeometry x="540.175" y="255.72" width="108.42" height="30" as="geometry" />
        </mxCell>
        <mxCell id="AjrS4u9YngEpX_1BVrvA-398" value="&lt;font style=&quot;font-size: 14px;&quot;&gt;CheckM&lt;/font&gt;" style="text;html=1;align=center;verticalAlign=middle;whiteSpace=wrap;rounded=0;fontStyle=1;fontSize=14;" parent="1" vertex="1">
          <mxGeometry x="564.385" y="340" width="60" height="30" as="geometry" />
        </mxCell>
        <mxCell id="AjrS4u9YngEpX_1BVrvA-400" value="&lt;font style=&quot;font-size: 14px;&quot;&gt;Kraken2&lt;/font&gt;" style="text;html=1;align=center;verticalAlign=middle;whiteSpace=wrap;rounded=0;fontStyle=1;fontSize=14;" parent="1" vertex="1">
          <mxGeometry x="564.385" y="460" width="60" height="30" as="geometry" />
        </mxCell>
        <mxCell id="AjrS4u9YngEpX_1BVrvA-402" value="" style="endArrow=none;html=1;rounded=1;strokeWidth=5;fontSize=16;fillColor=#ffcd28;strokeColor=#d79b00;gradientColor=#ffa500;" parent="1" edge="1">
          <mxGeometry width="50" height="50" relative="1" as="geometry">
            <mxPoint x="700" y="290" as="sourcePoint" />
            <mxPoint x="604.39" y="500" as="targetPoint" />
            <Array as="points">
              <mxPoint x="700" y="500" />
            </Array>
          </mxGeometry>
        </mxCell>
        <mxCell id="AjrS4u9YngEpX_1BVrvA-403" value="" style="endArrow=none;html=1;rounded=1;strokeWidth=5;fontSize=16;fillColor=#ffcd28;strokeColor=#d79b00;gradientColor=#ffa500;" parent="1" edge="1">
          <mxGeometry width="50" height="50" relative="1" as="geometry">
            <mxPoint x="700" y="420" as="sourcePoint" />
            <mxPoint x="604.39" y="440" as="targetPoint" />
            <Array as="points">
              <mxPoint x="700" y="440" />
            </Array>
          </mxGeometry>
        </mxCell>
        <mxCell id="AjrS4u9YngEpX_1BVrvA-406" value="&lt;font style=&quot;font-size: 14px;&quot;&gt;QC classification&lt;/font&gt;" style="text;html=1;align=center;verticalAlign=middle;whiteSpace=wrap;rounded=0;rotation=0;fontStyle=1;fontSize=14;" parent="1" vertex="1">
          <mxGeometry x="702.28" y="340" width="140" height="30" as="geometry" />
        </mxCell>
        <mxCell id="AjrS4u9YngEpX_1BVrvA-414" value="" style="endArrow=none;html=1;rounded=1;strokeWidth=5;fillColor=#ffcd28;strokeColor=#d79b00;gradientColor=#ffa500;" parent="1" source="AjrS4u9YngEpX_1BVrvA-431" edge="1">
          <mxGeometry width="50" height="50" relative="1" as="geometry">
            <mxPoint x="770" y="365.00000000000006" as="sourcePoint" />
            <mxPoint x="860" y="380" as="targetPoint" />
          </mxGeometry>
        </mxCell>
        <mxCell id="AjrS4u9YngEpX_1BVrvA-416" value="" style="group;fontSize=13;" parent="1" vertex="1" connectable="0">
          <mxGeometry x="40" y="60" width="70" height="70" as="geometry" />
        </mxCell>
        <mxCell id="AjrS4u9YngEpX_1BVrvA-417" value="" style="shape=note;whiteSpace=wrap;html=1;backgroundOutline=1;darkOpacity=0.05;rounded=1;size=20;strokeWidth=2;fillColor=#fad9d5;strokeColor=#ae4132;" parent="AjrS4u9YngEpX_1BVrvA-416" vertex="1">
          <mxGeometry x="3" width="48" height="63.63636363636363" as="geometry" />
        </mxCell>
        <mxCell id="AjrS4u9YngEpX_1BVrvA-418" value="&lt;font data-font-src=&quot;https://fonts.googleapis.com/css?family=Maven+Pro&quot; face=&quot;Maven Pro&quot; color=&quot;#ffffff&quot;&gt;&lt;b&gt;&lt;font style=&quot;font-size: 20px;&quot;&gt;Fastq&lt;/font&gt;&lt;/b&gt;&lt;/font&gt;" style="rounded=1;whiteSpace=wrap;html=1;strokeWidth=2;fillColor=#000000;" parent="AjrS4u9YngEpX_1BVrvA-416" vertex="1">
          <mxGeometry y="25.454545454545453" width="54" height="25.454545454545453" as="geometry" />
        </mxCell>
        <mxCell id="AjrS4u9YngEpX_1BVrvA-419" value="" style="shape=note;whiteSpace=wrap;html=1;backgroundOutline=1;darkOpacity=0.05;rounded=1;size=20;strokeWidth=2;fillColor=#fad9d5;strokeColor=#ae4132;" parent="AjrS4u9YngEpX_1BVrvA-416" vertex="1">
          <mxGeometry x="6" y="3.1818181818181817" width="48" height="63.63636363636363" as="geometry" />
        </mxCell>
        <mxCell id="AjrS4u9YngEpX_1BVrvA-420" value="&lt;font data-font-src=&quot;https://fonts.googleapis.com/css?family=Maven+Pro&quot; face=&quot;Maven Pro&quot; color=&quot;#ffffff&quot;&gt;&lt;b&gt;&lt;font style=&quot;font-size: 20px;&quot;&gt;Fastq&lt;/font&gt;&lt;/b&gt;&lt;/font&gt;" style="rounded=1;whiteSpace=wrap;html=1;strokeWidth=2;fillColor=#000000;" parent="AjrS4u9YngEpX_1BVrvA-416" vertex="1">
          <mxGeometry x="3" y="28.636363636363637" width="54" height="25.454545454545453" as="geometry" />
        </mxCell>
        <mxCell id="AjrS4u9YngEpX_1BVrvA-421" value="" style="shape=note;whiteSpace=wrap;html=1;backgroundOutline=1;darkOpacity=0.05;rounded=1;size=20;strokeWidth=2;fillColor=#fad9d5;strokeColor=#ae4132;" parent="AjrS4u9YngEpX_1BVrvA-416" vertex="1">
          <mxGeometry x="9" y="6.363636363636363" width="48" height="63.63636363636363" as="geometry" />
        </mxCell>
        <mxCell id="AjrS4u9YngEpX_1BVrvA-422" value="&lt;font data-font-src=&quot;https://fonts.googleapis.com/css?family=Maven+Pro&quot; face=&quot;Maven Pro&quot; color=&quot;#ffffff&quot;&gt;&lt;b&gt;&lt;font style=&quot;font-size: 9px;&quot;&gt;Fasta (asm)&lt;/font&gt;&lt;/b&gt;&lt;/font&gt;" style="rounded=1;whiteSpace=wrap;html=1;strokeWidth=2;fillColor=#000000;" parent="AjrS4u9YngEpX_1BVrvA-416" vertex="1">
          <mxGeometry x="6" y="31.818181818181817" width="54" height="25.454545454545453" as="geometry" />
        </mxCell>
        <mxCell id="AjrS4u9YngEpX_1BVrvA-424" value="" style="endArrow=none;html=1;rounded=1;strokeWidth=5;fontSize=16;fillColor=#ffcd28;strokeColor=#d79b00;gradientColor=#ffa500;" parent="1" source="J0x96L4pLX_jCq6a0jDY-7" edge="1">
          <mxGeometry width="50" height="50" relative="1" as="geometry">
            <mxPoint x="880" y="320.0000000000001" as="sourcePoint" />
            <mxPoint x="860" y="420" as="targetPoint" />
            <Array as="points">
              <mxPoint x="860" y="333" />
            </Array>
          </mxGeometry>
        </mxCell>
        <mxCell id="AjrS4u9YngEpX_1BVrvA-426" value="" style="group" parent="1" vertex="1" connectable="0">
          <mxGeometry x="900" y="370" width="90" height="100" as="geometry" />
        </mxCell>
        <mxCell id="AjrS4u9YngEpX_1BVrvA-427" value="" style="shape=note;whiteSpace=wrap;html=1;backgroundOutline=1;darkOpacity=0.05;rounded=1;size=20;strokeWidth=2;fillColor=#d5e8d4;strokeColor=#82b366;" parent="AjrS4u9YngEpX_1BVrvA-426" vertex="1">
          <mxGeometry x="2.5" y="20" width="55" height="70" as="geometry" />
        </mxCell>
        <mxCell id="AjrS4u9YngEpX_1BVrvA-428" value="&lt;font face=&quot;Maven Pro&quot; color=&quot;#ffffff&quot;&gt;&lt;b&gt;csv&lt;/b&gt;&lt;/font&gt;" style="rounded=1;whiteSpace=wrap;html=1;strokeWidth=2;fillColor=#000000;" parent="AjrS4u9YngEpX_1BVrvA-426" vertex="1">
          <mxGeometry y="44.55" width="60" height="25.45" as="geometry" />
        </mxCell>
        <mxCell id="AjrS4u9YngEpX_1BVrvA-434" value="" style="ellipse;whiteSpace=wrap;html=1;aspect=fixed;rounded=1;rotation=0;strokeWidth=2;fillColor=#f5f5f5;strokeColor=#666666;fontColor=#333333;" parent="1" vertex="1">
          <mxGeometry x="394" y="174.55" width="20" height="20" as="geometry" />
        </mxCell>
        <mxCell id="AjrS4u9YngEpX_1BVrvA-435" value="Read QC&lt;div style=&quot;font-size: 15px;&quot;&gt;Assembly&lt;/div&gt;&lt;div style=&quot;font-size: 15px;&quot;&gt;Assembly QC&lt;/div&gt;" style="text;html=1;align=left;verticalAlign=middle;resizable=0;points=[];autosize=1;strokeColor=none;fillColor=none;fontSize=15;" parent="1" vertex="1">
          <mxGeometry x="-135" y="455.45000000000005" width="110" height="70" as="geometry" />
        </mxCell>
        <mxCell id="AjrS4u9YngEpX_1BVrvA-436" value="" style="ellipse;whiteSpace=wrap;html=1;aspect=fixed;rounded=1;rotation=0;strokeWidth=2;fillColor=#e1d5e7;strokeColor=#9673a6;" parent="1" vertex="1">
          <mxGeometry x="-145" y="470.45000000000005" width="10" height="10" as="geometry" />
        </mxCell>
        <mxCell id="AjrS4u9YngEpX_1BVrvA-437" value="" style="ellipse;whiteSpace=wrap;html=1;aspect=fixed;rounded=1;rotation=0;strokeWidth=2;fillColor=#f5f5f5;strokeColor=#666666;fontColor=#333333;" parent="1" vertex="1">
          <mxGeometry x="-145" y="485.45000000000005" width="10" height="10" as="geometry" />
        </mxCell>
        <mxCell id="AjrS4u9YngEpX_1BVrvA-438" value="" style="ellipse;whiteSpace=wrap;html=1;aspect=fixed;rounded=1;rotation=0;strokeWidth=2;fillColor=#e6d0de;strokeColor=#996185;gradientColor=#d5739d;" parent="1" vertex="1">
          <mxGeometry x="-145" y="500.45000000000005" width="10" height="10" as="geometry" />
        </mxCell>
        <mxCell id="AjrS4u9YngEpX_1BVrvA-441" value="" style="group;" parent="1" vertex="1" connectable="0">
          <mxGeometry x="40" y="140" width="60" height="70" as="geometry" />
        </mxCell>
        <mxCell id="AjrS4u9YngEpX_1BVrvA-442" value="" style="shape=note;whiteSpace=wrap;html=1;backgroundOutline=1;darkOpacity=0.05;rounded=1;size=20;strokeWidth=2;fillColor=#fad9d5;strokeColor=#ae4132;" parent="AjrS4u9YngEpX_1BVrvA-441" vertex="1">
          <mxGeometry x="3" width="48" height="63.63636363636363" as="geometry" />
        </mxCell>
        <mxCell id="AjrS4u9YngEpX_1BVrvA-443" value="&lt;font data-font-src=&quot;https://fonts.googleapis.com/css?family=Maven+Pro&quot; face=&quot;Maven Pro&quot; color=&quot;#ffffff&quot;&gt;&lt;b&gt;&lt;font style=&quot;font-size: 20px;&quot;&gt;Fastq&lt;/font&gt;&lt;/b&gt;&lt;/font&gt;" style="rounded=1;whiteSpace=wrap;html=1;strokeWidth=2;fillColor=#000000;" parent="AjrS4u9YngEpX_1BVrvA-441" vertex="1">
          <mxGeometry y="25.454545454545453" width="54" height="25.454545454545453" as="geometry" />
        </mxCell>
        <mxCell id="AjrS4u9YngEpX_1BVrvA-444" value="" style="shape=note;whiteSpace=wrap;html=1;backgroundOutline=1;darkOpacity=0.05;rounded=1;size=20;strokeWidth=2;fillColor=#fad9d5;strokeColor=#ae4132;" parent="AjrS4u9YngEpX_1BVrvA-441" vertex="1">
          <mxGeometry x="6" y="3.1818181818181817" width="48" height="63.63636363636363" as="geometry" />
        </mxCell>
        <mxCell id="AjrS4u9YngEpX_1BVrvA-445" value="&lt;font data-font-src=&quot;https://fonts.googleapis.com/css?family=Maven+Pro&quot; face=&quot;Maven Pro&quot; color=&quot;#ffffff&quot;&gt;&lt;b&gt;&lt;font style=&quot;font-size: 20px;&quot;&gt;Fastq&lt;/font&gt;&lt;/b&gt;&lt;/font&gt;" style="rounded=1;whiteSpace=wrap;html=1;strokeWidth=2;fillColor=#000000;" parent="AjrS4u9YngEpX_1BVrvA-441" vertex="1">
          <mxGeometry x="3" y="28.636363636363637" width="54" height="25.454545454545453" as="geometry" />
        </mxCell>
        <mxCell id="AjrS4u9YngEpX_1BVrvA-446" value="" style="shape=note;whiteSpace=wrap;html=1;backgroundOutline=1;darkOpacity=0.05;rounded=1;size=20;strokeWidth=2;fillColor=#fad9d5;strokeColor=#ae4132;" parent="AjrS4u9YngEpX_1BVrvA-441" vertex="1">
          <mxGeometry x="9" y="6.363636363636363" width="48" height="63.63636363636363" as="geometry" />
        </mxCell>
        <mxCell id="AjrS4u9YngEpX_1BVrvA-447" value="&lt;font size=&quot;1&quot; face=&quot;Maven Pro&quot; color=&quot;#ffffff&quot;&gt;&lt;b&gt;Fastq&lt;/b&gt;&lt;/font&gt;" style="rounded=1;whiteSpace=wrap;html=1;strokeWidth=2;fillColor=#000000;" parent="AjrS4u9YngEpX_1BVrvA-441" vertex="1">
          <mxGeometry x="6" y="31.818181818181817" width="54" height="25.454545454545453" as="geometry" />
        </mxCell>
        <mxCell id="AjrS4u9YngEpX_1BVrvA-450" value="" style="group;" parent="1" vertex="1" connectable="0">
          <mxGeometry x="900" y="290" width="60" height="70" as="geometry" />
        </mxCell>
        <mxCell id="AjrS4u9YngEpX_1BVrvA-451" value="" style="shape=note;whiteSpace=wrap;html=1;backgroundOutline=1;darkOpacity=0.05;rounded=1;size=20;strokeWidth=2;fillColor=#d5e8d4;strokeColor=#82b366;" parent="AjrS4u9YngEpX_1BVrvA-450" vertex="1">
          <mxGeometry x="3" width="48" height="63.63636363636363" as="geometry" />
        </mxCell>
        <mxCell id="AjrS4u9YngEpX_1BVrvA-452" value="&lt;font data-font-src=&quot;https://fonts.googleapis.com/css?family=Maven+Pro&quot; face=&quot;Maven Pro&quot; color=&quot;#ffffff&quot;&gt;&lt;b&gt;&lt;font style=&quot;font-size: 20px;&quot;&gt;Fastq&lt;/font&gt;&lt;/b&gt;&lt;/font&gt;" style="rounded=1;whiteSpace=wrap;html=1;strokeWidth=2;fillColor=#000000;" parent="AjrS4u9YngEpX_1BVrvA-450" vertex="1">
          <mxGeometry y="25.454545454545453" width="54" height="25.454545454545453" as="geometry" />
        </mxCell>
        <mxCell id="AjrS4u9YngEpX_1BVrvA-453" value="" style="shape=note;whiteSpace=wrap;html=1;backgroundOutline=1;darkOpacity=0.05;rounded=1;size=20;strokeWidth=2;fillColor=#d5e8d4;strokeColor=#82b366;" parent="AjrS4u9YngEpX_1BVrvA-450" vertex="1">
          <mxGeometry x="6" y="3.1818181818181817" width="48" height="63.63636363636363" as="geometry" />
        </mxCell>
        <mxCell id="AjrS4u9YngEpX_1BVrvA-454" value="&lt;font data-font-src=&quot;https://fonts.googleapis.com/css?family=Maven+Pro&quot; face=&quot;Maven Pro&quot; color=&quot;#ffffff&quot;&gt;&lt;b&gt;&lt;font style=&quot;font-size: 20px;&quot;&gt;Fastq&lt;/font&gt;&lt;/b&gt;&lt;/font&gt;" style="rounded=1;whiteSpace=wrap;html=1;strokeWidth=2;fillColor=#000000;" parent="AjrS4u9YngEpX_1BVrvA-450" vertex="1">
          <mxGeometry x="3" y="28.636363636363637" width="54" height="25.454545454545453" as="geometry" />
        </mxCell>
        <mxCell id="AjrS4u9YngEpX_1BVrvA-455" value="" style="shape=note;whiteSpace=wrap;html=1;backgroundOutline=1;darkOpacity=0.05;rounded=1;size=20;strokeWidth=2;fillColor=#d5e8d4;strokeColor=#82b366;" parent="AjrS4u9YngEpX_1BVrvA-450" vertex="1">
          <mxGeometry x="9" y="6.363636363636363" width="48" height="63.63636363636363" as="geometry" />
        </mxCell>
        <mxCell id="AjrS4u9YngEpX_1BVrvA-456" value="&lt;font face=&quot;Maven Pro&quot; color=&quot;#ffffff&quot;&gt;&lt;b&gt;json&lt;/b&gt;&lt;/font&gt;" style="rounded=1;whiteSpace=wrap;html=1;strokeWidth=2;fillColor=#000000;" parent="AjrS4u9YngEpX_1BVrvA-450" vertex="1">
          <mxGeometry x="6" y="31.818181818181817" width="54" height="25.454545454545453" as="geometry" />
        </mxCell>
        <mxCell id="AjrS4u9YngEpX_1BVrvA-465" value="&lt;font style=&quot;font-size: 24px;&quot; color=&quot;#0066cc&quot;&gt;Read QC&lt;/font&gt;" style="text;html=1;align=center;verticalAlign=middle;whiteSpace=wrap;rounded=0;fontStyle=1;fontSize=16;" parent="1" vertex="1">
          <mxGeometry x="185" y="50" width="110" height="30" as="geometry" />
        </mxCell>
        <mxCell id="AjrS4u9YngEpX_1BVrvA-467" value="&lt;font style=&quot;font-size: 24px;&quot; color=&quot;#0066cc&quot;&gt;Assembly&lt;/font&gt;" style="text;html=1;align=center;verticalAlign=middle;whiteSpace=wrap;rounded=0;fontStyle=1;fontSize=16;" parent="1" vertex="1">
          <mxGeometry x="322.5" y="50" width="165" height="30" as="geometry" />
        </mxCell>
        <mxCell id="AjrS4u9YngEpX_1BVrvA-468" value="&lt;font style=&quot;font-size: 24px;&quot; color=&quot;#0066cc&quot;&gt;&amp;nbsp;Assembly QC&lt;/font&gt;" style="text;html=1;align=center;verticalAlign=middle;whiteSpace=wrap;rounded=0;fontStyle=1;fontSize=16;" parent="1" vertex="1">
          <mxGeometry x="567.5" y="55" width="175" height="20" as="geometry" />
        </mxCell>
        <mxCell id="AjrS4u9YngEpX_1BVrvA-472" value="&lt;font style=&quot;font-size: 14px;&quot;&gt;FastANI&lt;/font&gt;" style="text;html=1;align=center;verticalAlign=middle;whiteSpace=wrap;rounded=0;fontStyle=1;fontSize=14;" parent="1" vertex="1">
          <mxGeometry x="551.58" y="210" width="85.61" height="25.45" as="geometry" />
        </mxCell>
        <mxCell id="AjrS4u9YngEpX_1BVrvA-476" value="" style="endArrow=none;html=1;rounded=1;strokeWidth=5;fontSize=16;entryX=0;entryY=0.5;entryDx=0;entryDy=0;fillColor=#dae8fc;strokeColor=#6c8ebf;exitX=0.5;exitY=1;exitDx=0;exitDy=0;" parent="1" source="AjrS4u9YngEpX_1BVrvA-478" target="AjrS4u9YngEpX_1BVrvA-509" edge="1">
          <mxGeometry width="50" height="50" relative="1" as="geometry">
            <mxPoint x="210" y="234.28" as="sourcePoint" />
            <mxPoint x="250" y="340" as="targetPoint" />
            <Array as="points">
              <mxPoint x="210" y="330" />
            </Array>
          </mxGeometry>
        </mxCell>
        <mxCell id="AjrS4u9YngEpX_1BVrvA-478" value="" style="ellipse;whiteSpace=wrap;html=1;aspect=fixed;rounded=1;rotation=0;strokeWidth=2;fillColor=#e1d5e7;strokeColor=#9673a6;" parent="1" vertex="1">
          <mxGeometry x="200" y="174.55" width="20" height="20" as="geometry" />
        </mxCell>
        <mxCell id="AjrS4u9YngEpX_1BVrvA-479" value="" style="endArrow=none;html=1;rounded=1;strokeWidth=5;fontSize=16;entryX=0;entryY=0.5;entryDx=0;entryDy=0;fillColor=#e1d5e7;strokeColor=#9673a6;" parent="1" edge="1">
          <mxGeometry width="50" height="50" relative="1" as="geometry">
            <mxPoint x="520" y="210" as="sourcePoint" />
            <mxPoint x="584.3899999999999" y="295.72" as="targetPoint" />
            <Array as="points">
              <mxPoint x="520" y="295.72" />
            </Array>
          </mxGeometry>
        </mxCell>
        <mxCell id="AjrS4u9YngEpX_1BVrvA-482" value="" style="endArrow=none;html=1;rounded=1;strokeWidth=5;fontSize=16;entryX=0;entryY=0.5;entryDx=0;entryDy=0;fillColor=#e1d5e7;strokeColor=#9673a6;" parent="1" edge="1">
          <mxGeometry width="50" height="50" relative="1" as="geometry">
            <mxPoint x="520" y="370" as="sourcePoint" />
            <mxPoint x="584.39" y="440" as="targetPoint" />
            <Array as="points">
              <mxPoint x="520.39" y="440" />
            </Array>
          </mxGeometry>
        </mxCell>
        <mxCell id="AjrS4u9YngEpX_1BVrvA-484" value="" style="ellipse;whiteSpace=wrap;html=1;aspect=fixed;rounded=1;rotation=0;strokeWidth=2;fillColor=#e6d0de;gradientColor=#d5739d;strokeColor=#996185;" parent="1" vertex="1">
          <mxGeometry x="584.39" y="370" width="20" height="20" as="geometry" />
        </mxCell>
        <mxCell id="AjrS4u9YngEpX_1BVrvA-485" value="" style="ellipse;whiteSpace=wrap;html=1;aspect=fixed;rounded=1;rotation=0;strokeWidth=2;fillColor=#e6d0de;gradientColor=#d5739d;strokeColor=#996185;" parent="1" vertex="1">
          <mxGeometry x="584.39" y="430" width="20" height="20" as="geometry" />
        </mxCell>
        <mxCell id="AjrS4u9YngEpX_1BVrvA-487" value="" style="ellipse;whiteSpace=wrap;html=1;aspect=fixed;rounded=1;rotation=0;strokeWidth=2;fillColor=#e6d0de;gradientColor=#d5739d;strokeColor=#996185;" parent="1" vertex="1">
          <mxGeometry x="584.39" y="285.72" width="20" height="20" as="geometry" />
        </mxCell>
        <mxCell id="AjrS4u9YngEpX_1BVrvA-489" value="" style="endArrow=none;html=1;rounded=1;strokeWidth=5;fontSize=16;entryX=0;entryY=0.5;entryDx=0;entryDy=0;fillColor=#e1d5e7;strokeColor=#9673a6;exitX=0.5;exitY=1.273;exitDx=0;exitDy=0;exitPerimeter=0;" parent="1" edge="1">
          <mxGeometry width="50" height="50" relative="1" as="geometry">
            <mxPoint x="520" y="200.01" as="sourcePoint" />
            <mxPoint x="584.3899999999999" y="245.45000000000002" as="targetPoint" />
            <Array as="points">
              <mxPoint x="520" y="245.72" />
            </Array>
          </mxGeometry>
        </mxCell>
        <mxCell id="AjrS4u9YngEpX_1BVrvA-491" value="" style="endArrow=none;html=1;rounded=1;strokeWidth=5;fontSize=16;entryX=1;entryY=0.5;entryDx=0;entryDy=0;fillColor=#e1d5e7;strokeColor=#9673a6;exitX=0;exitY=0.5;exitDx=0;exitDy=0;" parent="1" source="J0x96L4pLX_jCq6a0jDY-4" edge="1">
          <mxGeometry width="50" height="50" relative="1" as="geometry">
            <mxPoint x="850" y="183" as="sourcePoint" />
            <mxPoint x="529.9999999999998" y="184.54999999999995" as="targetPoint" />
            <Array as="points" />
          </mxGeometry>
        </mxCell>
        <mxCell id="AjrS4u9YngEpX_1BVrvA-492" value="" style="endArrow=none;html=1;rounded=1;strokeWidth=5;fontSize=16;fillColor=#ffcd28;strokeColor=#d79b00;gradientColor=#ffa500;" parent="1" edge="1">
          <mxGeometry width="50" height="50" relative="1" as="geometry">
            <mxPoint x="700" y="295.45000000000005" as="sourcePoint" />
            <mxPoint x="604.39" y="245.45000000000013" as="targetPoint" />
            <Array as="points">
              <mxPoint x="700" y="245.45000000000002" />
            </Array>
          </mxGeometry>
        </mxCell>
        <mxCell id="AjrS4u9YngEpX_1BVrvA-493" value="" style="ellipse;whiteSpace=wrap;html=1;aspect=fixed;rounded=1;rotation=0;strokeWidth=2;fillColor=#e6d0de;gradientColor=#d5739d;strokeColor=#996185;fontStyle=1" parent="1" vertex="1">
          <mxGeometry x="584.39" y="235.45000000000002" width="20" height="20" as="geometry" />
        </mxCell>
        <mxCell id="AjrS4u9YngEpX_1BVrvA-431" value="" style="ellipse;whiteSpace=wrap;html=1;aspect=fixed;rounded=1;rotation=0;strokeWidth=2;fillColor=#e6d0de;gradientColor=#d5739d;strokeColor=#996185;" parent="1" vertex="1">
          <mxGeometry x="750" y="370" width="20" height="20" as="geometry" />
        </mxCell>
        <mxCell id="AjrS4u9YngEpX_1BVrvA-497" value="" style="endArrow=none;html=1;rounded=1;strokeWidth=5;fontSize=16;fillColor=#ffcd28;strokeColor=#d79b00;gradientColor=#ffa500;" parent="1" edge="1">
          <mxGeometry width="50" height="50" relative="1" as="geometry">
            <mxPoint x="700" y="345.72" as="sourcePoint" />
            <mxPoint x="604.39" y="295.72000000000014" as="targetPoint" />
            <Array as="points">
              <mxPoint x="700" y="295.72" />
            </Array>
          </mxGeometry>
        </mxCell>
        <mxCell id="AjrS4u9YngEpX_1BVrvA-498" value="" style="endArrow=none;html=1;rounded=1;strokeWidth=5;entryX=0;entryY=0.5;entryDx=0;entryDy=0;fillColor=#ffcd28;strokeColor=#d79b00;gradientColor=#ffa500;" parent="1" target="AjrS4u9YngEpX_1BVrvA-431" edge="1">
          <mxGeometry width="50" height="50" relative="1" as="geometry">
            <mxPoint x="604.39" y="379.71" as="sourcePoint" />
            <mxPoint x="644.39" y="379.71" as="targetPoint" />
          </mxGeometry>
        </mxCell>
        <mxCell id="AjrS4u9YngEpX_1BVrvA-499" value="" style="group;" parent="1" vertex="1" connectable="0">
          <mxGeometry x="900" y="150" width="60" height="70" as="geometry" />
        </mxCell>
        <mxCell id="AjrS4u9YngEpX_1BVrvA-500" value="" style="shape=note;whiteSpace=wrap;html=1;backgroundOutline=1;darkOpacity=0.05;rounded=1;size=20;strokeWidth=2;fillColor=#d5e8d4;strokeColor=#82b366;" parent="AjrS4u9YngEpX_1BVrvA-499" vertex="1">
          <mxGeometry x="3" width="48" height="63.63636363636363" as="geometry" />
        </mxCell>
        <mxCell id="AjrS4u9YngEpX_1BVrvA-501" value="&lt;font data-font-src=&quot;https://fonts.googleapis.com/css?family=Maven+Pro&quot; face=&quot;Maven Pro&quot; color=&quot;#ffffff&quot;&gt;&lt;b&gt;&lt;font style=&quot;font-size: 20px;&quot;&gt;Fastq&lt;/font&gt;&lt;/b&gt;&lt;/font&gt;" style="rounded=1;whiteSpace=wrap;html=1;strokeWidth=2;fillColor=#000000;" parent="AjrS4u9YngEpX_1BVrvA-499" vertex="1">
          <mxGeometry y="25.454545454545453" width="54" height="25.454545454545453" as="geometry" />
        </mxCell>
        <mxCell id="AjrS4u9YngEpX_1BVrvA-502" value="" style="shape=note;whiteSpace=wrap;html=1;backgroundOutline=1;darkOpacity=0.05;rounded=1;size=20;strokeWidth=2;fillColor=#d5e8d4;strokeColor=#82b366;" parent="AjrS4u9YngEpX_1BVrvA-499" vertex="1">
          <mxGeometry x="6" y="3.1818181818181817" width="48" height="63.63636363636363" as="geometry" />
        </mxCell>
        <mxCell id="AjrS4u9YngEpX_1BVrvA-503" value="&lt;font data-font-src=&quot;https://fonts.googleapis.com/css?family=Maven+Pro&quot; face=&quot;Maven Pro&quot; color=&quot;#ffffff&quot;&gt;&lt;b&gt;&lt;font style=&quot;font-size: 20px;&quot;&gt;Fastq&lt;/font&gt;&lt;/b&gt;&lt;/font&gt;" style="rounded=1;whiteSpace=wrap;html=1;strokeWidth=2;fillColor=#000000;" parent="AjrS4u9YngEpX_1BVrvA-499" vertex="1">
          <mxGeometry x="3" y="28.636363636363637" width="54" height="25.454545454545453" as="geometry" />
        </mxCell>
        <mxCell id="AjrS4u9YngEpX_1BVrvA-504" value="" style="shape=note;whiteSpace=wrap;html=1;backgroundOutline=1;darkOpacity=0.05;rounded=1;size=20;strokeWidth=2;fillColor=#d5e8d4;strokeColor=#82b366;" parent="AjrS4u9YngEpX_1BVrvA-499" vertex="1">
          <mxGeometry x="9" y="6.363636363636363" width="48" height="63.63636363636363" as="geometry" />
        </mxCell>
        <mxCell id="AjrS4u9YngEpX_1BVrvA-505" value="&lt;font face=&quot;Maven Pro&quot; color=&quot;#ffffff&quot;&gt;&lt;b&gt;Fasta&lt;/b&gt;&lt;/font&gt;" style="rounded=1;whiteSpace=wrap;html=1;strokeWidth=2;fillColor=#000000;" parent="AjrS4u9YngEpX_1BVrvA-499" vertex="1">
          <mxGeometry x="6" y="31.818181818181817" width="54" height="25.454545454545453" as="geometry" />
        </mxCell>
        <mxCell id="AjrS4u9YngEpX_1BVrvA-508" value="" style="endArrow=none;html=1;rounded=1;strokeWidth=5;fontSize=16;fillColor=#ffcd28;strokeColor=#d79b00;entryX=1;entryY=0.5;entryDx=0;entryDy=0;gradientColor=#ffa500;" parent="1" edge="1">
          <mxGeometry width="50" height="50" relative="1" as="geometry">
            <mxPoint x="700" y="350.0000000000001" as="sourcePoint" />
            <mxPoint x="270" y="330" as="targetPoint" />
            <Array as="points">
              <mxPoint x="700" y="330.0000000000001" />
            </Array>
          </mxGeometry>
        </mxCell>
        <mxCell id="AjrS4u9YngEpX_1BVrvA-509" value="" style="ellipse;whiteSpace=wrap;html=1;aspect=fixed;rounded=1;rotation=0;strokeWidth=2;fillColor=#e1d5e7;strokeColor=#9673a6;" parent="1" vertex="1">
          <mxGeometry x="250" y="320" width="20" height="20" as="geometry" />
        </mxCell>
        <mxCell id="AjrS4u9YngEpX_1BVrvA-510" value="&lt;div style=&quot;font-size: 14px;&quot;&gt;bbmap&lt;/div&gt;" style="text;html=1;align=center;verticalAlign=middle;whiteSpace=wrap;rounded=0;rotation=0;fontStyle=1;fontSize=14;" parent="1" vertex="1">
          <mxGeometry x="523.8499999999999" y="147.28" width="60" height="30" as="geometry" />
        </mxCell>
        <mxCell id="AjrS4u9YngEpX_1BVrvA-511" value="" style="endArrow=none;dashed=1;html=1;rounded=0;exitX=1;exitY=1;exitDx=0;exitDy=0;" parent="1" source="AjrS4u9YngEpX_1BVrvA-513" target="AjrS4u9YngEpX_1BVrvA-512" edge="1">
          <mxGeometry width="50" height="50" relative="1" as="geometry">
            <mxPoint x="-100" y="120" as="sourcePoint" />
            <mxPoint x="35.45" y="154.55" as="targetPoint" />
          </mxGeometry>
        </mxCell>
        <mxCell id="AjrS4u9YngEpX_1BVrvA-512" value="" style="ellipse;whiteSpace=wrap;html=1;aspect=fixed;rounded=1;rotation=0;strokeWidth=2;" parent="1" vertex="1">
          <mxGeometry x="25.450000000000003" y="160" width="4.55" height="4.55" as="geometry" />
        </mxCell>
        <mxCell id="AjrS4u9YngEpX_1BVrvA-513" value="&lt;font style=&quot;font-size: 15px;&quot;&gt;Support of Illumina short reads as well as presomputed assemblies as input&lt;/font&gt;" style="text;html=1;align=center;verticalAlign=middle;whiteSpace=wrap;rounded=0;fontSize=15;" parent="1" vertex="1">
          <mxGeometry x="-170" y="97.72" width="110" height="32.28" as="geometry" />
        </mxCell>
        <mxCell id="AjrS4u9YngEpX_1BVrvA-514" value="" style="endArrow=none;dashed=1;html=1;rounded=0;exitX=1;exitY=0;exitDx=0;exitDy=0;" parent="1" source="AjrS4u9YngEpX_1BVrvA-516" target="AjrS4u9YngEpX_1BVrvA-515" edge="1">
          <mxGeometry width="50" height="50" relative="1" as="geometry">
            <mxPoint x="200" y="550" as="sourcePoint" />
            <mxPoint x="325.45" y="494.54999999999995" as="targetPoint" />
          </mxGeometry>
        </mxCell>
        <mxCell id="AjrS4u9YngEpX_1BVrvA-515" value="" style="ellipse;whiteSpace=wrap;html=1;aspect=fixed;rounded=1;rotation=0;strokeWidth=2;" parent="1" vertex="1">
          <mxGeometry x="270" y="342.73" width="4.55" height="4.55" as="geometry" />
        </mxCell>
        <mxCell id="AjrS4u9YngEpX_1BVrvA-516" value="&lt;font style=&quot;font-size: 15px;&quot;&gt;Identification of reads/contigs belonging to expected genus and host&lt;/font&gt;" style="text;html=1;align=center;verticalAlign=middle;whiteSpace=wrap;rounded=0;fontSize=15;" parent="1" vertex="1">
          <mxGeometry x="216.13" y="520" width="160" height="30" as="geometry" />
        </mxCell>
        <mxCell id="AjrS4u9YngEpX_1BVrvA-517" value="" style="endArrow=none;dashed=1;html=1;rounded=0;exitX=1;exitY=0;exitDx=0;exitDy=0;" parent="1" source="AjrS4u9YngEpX_1BVrvA-516" target="AjrS4u9YngEpX_1BVrvA-518" edge="1">
          <mxGeometry width="50" height="50" relative="1" as="geometry">
            <mxPoint x="200" y="550" as="sourcePoint" />
            <mxPoint x="635.45" y="644.55" as="targetPoint" />
          </mxGeometry>
        </mxCell>
        <mxCell id="AjrS4u9YngEpX_1BVrvA-518" value="" style="ellipse;whiteSpace=wrap;html=1;aspect=fixed;rounded=1;rotation=0;strokeWidth=2;" parent="1" vertex="1">
          <mxGeometry x="570" y="510" width="4.55" height="4.55" as="geometry" />
        </mxCell>
        <mxCell id="AjrS4u9YngEpX_1BVrvA-519" value="" style="endArrow=none;dashed=1;html=1;rounded=0;exitX=0;exitY=0;exitDx=0;exitDy=0;" parent="1" source="AjrS4u9YngEpX_1BVrvA-522" target="AjrS4u9YngEpX_1BVrvA-520" edge="1">
          <mxGeometry width="50" height="50" relative="1" as="geometry">
            <mxPoint x="720" y="580" as="sourcePoint" />
            <mxPoint x="665.45" y="534.55" as="targetPoint" />
          </mxGeometry>
        </mxCell>
        <mxCell id="AjrS4u9YngEpX_1BVrvA-520" value="" style="ellipse;whiteSpace=wrap;html=1;aspect=fixed;rounded=1;rotation=0;strokeWidth=2;" parent="1" vertex="1">
          <mxGeometry x="600" y="400" width="4.55" height="4.55" as="geometry" />
        </mxCell>
        <mxCell id="AjrS4u9YngEpX_1BVrvA-521" value="&lt;font style=&quot;font-size: 14px;&quot;&gt;BUSCO&lt;/font&gt;" style="text;html=1;align=center;verticalAlign=middle;whiteSpace=wrap;rounded=0;fontStyle=1;fontSize=14;" parent="1" vertex="1">
          <mxGeometry x="564.385" y="400" width="60" height="30" as="geometry" />
        </mxCell>
        <mxCell id="AjrS4u9YngEpX_1BVrvA-522" value="&lt;font style=&quot;font-size: 15px;&quot;&gt;Assessment of genomic completeness&lt;/font&gt;" style="text;html=1;align=center;verticalAlign=middle;whiteSpace=wrap;rounded=0;fontSize=15;" parent="1" vertex="1">
          <mxGeometry x="740" y="550" width="110" height="30" as="geometry" />
        </mxCell>
        <mxCell id="AjrS4u9YngEpX_1BVrvA-523" value="" style="endArrow=none;dashed=1;html=1;rounded=0;exitX=0.094;exitY=1;exitDx=0;exitDy=0;exitPerimeter=0;" parent="1" source="AjrS4u9YngEpX_1BVrvA-531" target="AjrS4u9YngEpX_1BVrvA-524" edge="1">
          <mxGeometry width="50" height="50" relative="1" as="geometry">
            <mxPoint x="760" as="sourcePoint" />
            <mxPoint x="617.03" y="314.99999999999994" as="targetPoint" />
          </mxGeometry>
        </mxCell>
        <mxCell id="AjrS4u9YngEpX_1BVrvA-524" value="" style="ellipse;whiteSpace=wrap;html=1;aspect=fixed;rounded=1;rotation=0;strokeWidth=2;" parent="1" vertex="1">
          <mxGeometry x="551.5799999999999" y="140.45" width="4.55" height="4.55" as="geometry" />
        </mxCell>
        <mxCell id="AjrS4u9YngEpX_1BVrvA-525" value="" style="endArrow=none;dashed=1;html=1;rounded=0;exitX=0;exitY=1;exitDx=0;exitDy=0;entryX=1;entryY=0.5;entryDx=0;entryDy=0;" parent="1" source="AjrS4u9YngEpX_1BVrvA-530" target="AjrS4u9YngEpX_1BVrvA-526" edge="1">
          <mxGeometry width="50" height="50" relative="1" as="geometry">
            <mxPoint x="1021.05" y="68.67" as="sourcePoint" />
            <mxPoint x="624" y="250" as="targetPoint" />
          </mxGeometry>
        </mxCell>
        <mxCell id="AjrS4u9YngEpX_1BVrvA-526" value="" style="ellipse;whiteSpace=wrap;html=1;aspect=fixed;rounded=1;rotation=0;strokeWidth=2;" parent="1" vertex="1">
          <mxGeometry x="624.3899999999999" y="215.45" width="4.55" height="4.55" as="geometry" />
        </mxCell>
        <mxCell id="AjrS4u9YngEpX_1BVrvA-527" value="" style="endArrow=none;dashed=1;html=1;rounded=0;exitX=0;exitY=0;exitDx=0;exitDy=0;" parent="1" source="AjrS4u9YngEpX_1BVrvA-529" target="AjrS4u9YngEpX_1BVrvA-528" edge="1">
          <mxGeometry width="50" height="50" relative="1" as="geometry">
            <mxPoint x="940" y="560" as="sourcePoint" />
            <mxPoint x="835.45" y="524.55" as="targetPoint" />
          </mxGeometry>
        </mxCell>
        <mxCell id="AjrS4u9YngEpX_1BVrvA-528" value="" style="ellipse;whiteSpace=wrap;html=1;aspect=fixed;rounded=1;rotation=0;strokeWidth=2;" parent="1" vertex="1">
          <mxGeometry x="770" y="390" width="4.55" height="4.55" as="geometry" />
        </mxCell>
        <mxCell id="AjrS4u9YngEpX_1BVrvA-529" value="&lt;div style=&quot;font-size: 15px;&quot;&gt;Combining all QC parameters &amp;amp; quality assessment into labels:&lt;br style=&quot;font-size: 15px;&quot;&gt;&lt;/div&gt;&lt;div style=&quot;font-size: 15px;&quot;&gt;&lt;br style=&quot;font-size: 15px;&quot;&gt;&lt;/div&gt;" style="text;html=1;align=center;verticalAlign=middle;whiteSpace=wrap;rounded=0;fontSize=15;" parent="1" vertex="1">
          <mxGeometry x="930" y="490" width="190" height="40" as="geometry" />
        </mxCell>
        <mxCell id="AjrS4u9YngEpX_1BVrvA-530" value="&lt;font style=&quot;font-size: 15px;&quot;&gt;Identification of clostest reference genome&lt;/font&gt;" style="text;html=1;align=center;verticalAlign=middle;whiteSpace=wrap;rounded=0;fontSize=15;" parent="1" vertex="1">
          <mxGeometry x="840" y="-30" width="120" height="30" as="geometry" />
        </mxCell>
        <mxCell id="AjrS4u9YngEpX_1BVrvA-531" value="&lt;font style=&quot;font-size: 15px;&quot;&gt;Removal of tiny contigs &amp;amp; coverage calculation&lt;/font&gt;" style="text;html=1;align=center;verticalAlign=middle;whiteSpace=wrap;rounded=0;fontSize=15;" parent="1" vertex="1">
          <mxGeometry x="509" y="-40" width="141" height="30" as="geometry" />
        </mxCell>
        <mxCell id="AjrS4u9YngEpX_1BVrvA-533" value="" style="endArrow=none;dashed=1;html=1;rounded=0;exitX=1;exitY=1;exitDx=0;exitDy=0;" parent="1" source="AjrS4u9YngEpX_1BVrvA-535" target="AjrS4u9YngEpX_1BVrvA-534" edge="1">
          <mxGeometry width="50" height="50" relative="1" as="geometry">
            <mxPoint x="280" y="-10" as="sourcePoint" />
            <mxPoint x="277.03" y="314.99999999999994" as="targetPoint" />
          </mxGeometry>
        </mxCell>
        <mxCell id="AjrS4u9YngEpX_1BVrvA-534" value="" style="ellipse;whiteSpace=wrap;html=1;aspect=fixed;rounded=1;rotation=0;strokeWidth=2;" parent="1" vertex="1">
          <mxGeometry x="211.57999999999993" y="140.45" width="4.55" height="4.55" as="geometry" />
        </mxCell>
        <mxCell id="AjrS4u9YngEpX_1BVrvA-535" value="&lt;font style=&quot;font-size: 15px;&quot;&gt;Removal of adapters and low quality reads&lt;/font&gt;" style="text;html=1;align=center;verticalAlign=middle;whiteSpace=wrap;rounded=0;fontSize=15;" parent="1" vertex="1">
          <mxGeometry x="50" y="-30" width="110" height="30" as="geometry" />
        </mxCell>
        <mxCell id="AjrS4u9YngEpX_1BVrvA-536" value="" style="endArrow=none;dashed=1;html=1;rounded=0;exitX=0;exitY=1;exitDx=0;exitDy=0;exitPerimeter=0;" parent="1" source="AjrS4u9YngEpX_1BVrvA-538" target="AjrS4u9YngEpX_1BVrvA-537" edge="1">
          <mxGeometry width="50" height="50" relative="1" as="geometry">
            <mxPoint x="1310" y="360" as="sourcePoint" />
            <mxPoint x="1015.45" y="459.54999999999995" as="targetPoint" />
          </mxGeometry>
        </mxCell>
        <mxCell id="AjrS4u9YngEpX_1BVrvA-537" value="" style="ellipse;whiteSpace=wrap;html=1;aspect=fixed;rounded=1;rotation=0;strokeWidth=2;" parent="1" vertex="1">
          <mxGeometry x="980" y="317.73" width="4.55" height="4.55" as="geometry" />
        </mxCell>
        <mxCell id="AjrS4u9YngEpX_1BVrvA-538" value="&lt;font style=&quot;font-size: 15px;&quot;&gt;Three main outputs are poduced an assembly (fasta), a QC report per assembly (json) and a merged QC report for all assemblies processed (csv)&amp;nbsp;&lt;/font&gt;" style="text;html=1;align=center;verticalAlign=middle;whiteSpace=wrap;rounded=0;fontSize=15;" parent="1" vertex="1">
          <mxGeometry x="1020" y="237.27" width="130" height="72.73" as="geometry" />
        </mxCell>
        <mxCell id="J0x96L4pLX_jCq6a0jDY-2" value="" style="endArrow=none;html=1;rounded=1;strokeWidth=5;fontSize=16;exitX=0.5;exitY=0;exitDx=0;exitDy=0;fillColor=#e1d5e7;strokeColor=#9673a6;entryX=1;entryY=0.5;entryDx=0;entryDy=0;" parent="1" target="J0x96L4pLX_jCq6a0jDY-13" edge="1">
          <mxGeometry width="50" height="50" relative="1" as="geometry">
            <mxPoint x="520" y="212.28" as="sourcePoint" />
            <mxPoint x="119.9999999999734" y="102.73499999999989" as="targetPoint" />
            <Array as="points">
              <mxPoint x="520" y="105" />
            </Array>
          </mxGeometry>
        </mxCell>
        <mxCell id="J0x96L4pLX_jCq6a0jDY-4" value="" style="ellipse;whiteSpace=wrap;html=1;aspect=fixed;rounded=1;rotation=0;strokeWidth=2;fillColor=#4D4D4D;strokeColor=#000000;" parent="1" vertex="1">
          <mxGeometry x="874.55" y="175" width="14.55" height="14.55" as="geometry" />
        </mxCell>
        <mxCell id="J0x96L4pLX_jCq6a0jDY-7" value="" style="ellipse;whiteSpace=wrap;html=1;aspect=fixed;rounded=1;rotation=0;strokeWidth=2;fillColor=#4D4D4D;strokeColor=#000000;" parent="1" vertex="1">
          <mxGeometry x="874.55" y="325.45000000000005" width="14.55" height="14.55" as="geometry" />
        </mxCell>
        <mxCell id="J0x96L4pLX_jCq6a0jDY-10" value="" style="endArrow=none;html=1;rounded=1;strokeWidth=3;fontSize=16;entryX=0;entryY=0.5;entryDx=0;entryDy=0;fillColor=#ffcd28;gradientColor=#ffa500;strokeColor=#d79b00;" parent="1" edge="1">
          <mxGeometry width="50" height="50" relative="1" as="geometry">
            <mxPoint x="860" y="410" as="sourcePoint" />
            <mxPoint x="874.5500000000943" y="427.2750000000001" as="targetPoint" />
            <Array as="points">
              <mxPoint x="860" y="427" />
            </Array>
          </mxGeometry>
        </mxCell>
        <mxCell id="J0x96L4pLX_jCq6a0jDY-11" value="" style="ellipse;whiteSpace=wrap;html=1;aspect=fixed;rounded=1;rotation=0;strokeWidth=2;fillColor=#4D4D4D;strokeColor=#000000;" parent="1" vertex="1">
          <mxGeometry x="874.55" y="420" width="14.55" height="14.55" as="geometry" />
        </mxCell>
        <mxCell id="J0x96L4pLX_jCq6a0jDY-12" value="" style="ellipse;whiteSpace=wrap;html=1;aspect=fixed;rounded=1;rotation=0;strokeWidth=2;fillColor=#4D4D4D;strokeColor=#000000;" parent="1" vertex="1">
          <mxGeometry x="105.44999999999993" y="177.28" width="14.55" height="14.55" as="geometry" />
        </mxCell>
        <mxCell id="J0x96L4pLX_jCq6a0jDY-13" value="" style="ellipse;whiteSpace=wrap;html=1;aspect=fixed;rounded=1;rotation=0;strokeWidth=2;fillColor=#4D4D4D;strokeColor=#000000;" parent="1" vertex="1">
          <mxGeometry x="105.44999999999993" y="97.71999999999998" width="14.55" height="14.55" as="geometry" />
        </mxCell>
        <mxCell id="ZOSfkZZ6Q9846fgDI81B-23" value="" style="endArrow=none;dashed=1;html=1;rounded=0;exitX=0;exitY=1;exitDx=0;exitDy=0;entryX=1;entryY=0;entryDx=0;entryDy=0;" parent="1" source="ZOSfkZZ6Q9846fgDI81B-25" target="ZOSfkZZ6Q9846fgDI81B-24" edge="1">
          <mxGeometry width="50" height="50" relative="1" as="geometry">
            <mxPoint x="870.08" y="55" as="sourcePoint" />
            <mxPoint x="654.08" y="305" as="targetPoint" />
          </mxGeometry>
        </mxCell>
        <mxCell id="ZOSfkZZ6Q9846fgDI81B-24" value="" style="ellipse;whiteSpace=wrap;html=1;aspect=fixed;rounded=1;rotation=0;strokeWidth=2;" parent="1" vertex="1">
          <mxGeometry x="648.59" y="262.7199999999999" width="4.55" height="4.55" as="geometry" />
        </mxCell>
        <mxCell id="ZOSfkZZ6Q9846fgDI81B-25" value="&lt;font style=&quot;font-size: 15px;&quot;&gt;Assessment of general assembly statistics&lt;/font&gt;" style="text;html=1;align=center;verticalAlign=middle;whiteSpace=wrap;rounded=0;fontSize=15;" parent="1" vertex="1">
          <mxGeometry x="900" y="67.73" width="140" height="30" as="geometry" />
        </mxCell>
        <mxCell id="71z2cc4TqB17SHWxZnwA-13" value="" style="rounded=1;whiteSpace=wrap;html=1;strokeWidth=2;arcSize=50;fillColor=#000000;" parent="1" vertex="1">
          <mxGeometry x="980" y="550" width="20" height="60" as="geometry" />
        </mxCell>
        <mxCell id="71z2cc4TqB17SHWxZnwA-14" value="" style="ellipse;whiteSpace=wrap;html=1;aspect=fixed;rounded=1;rotation=0;strokeWidth=2;fillColor=#00CC00;fontColor=#ffffff;strokeColor=#000000;direction=south;" parent="1" vertex="1">
          <mxGeometry x="980" y="590" width="20" height="20" as="geometry" />
        </mxCell>
        <mxCell id="71z2cc4TqB17SHWxZnwA-15" value="" style="ellipse;whiteSpace=wrap;html=1;aspect=fixed;rounded=1;rotation=0;strokeWidth=2;fillColor=#FFFF00;strokeColor=#000000;" parent="1" vertex="1">
          <mxGeometry x="980" y="570" width="20" height="20" as="geometry" />
        </mxCell>
        <mxCell id="71z2cc4TqB17SHWxZnwA-16" value="" style="ellipse;whiteSpace=wrap;html=1;aspect=fixed;rounded=1;rotation=0;strokeWidth=2;fillColor=#e51400;fontColor=#ffffff;strokeColor=#000000;" parent="1" vertex="1">
          <mxGeometry x="980" y="550" width="20" height="20" as="geometry" />
        </mxCell>
        <mxCell id="71z2cc4TqB17SHWxZnwA-20" value="&amp;nbsp;&amp;nbsp; FLAGGED" style="text;html=1;align=center;verticalAlign=middle;whiteSpace=wrap;rounded=0;fontSize=15;" parent="1" vertex="1">
          <mxGeometry x="1000" y="565" width="82.5" height="30" as="geometry" />
        </mxCell>
        <mxCell id="71z2cc4TqB17SHWxZnwA-21" value="&amp;nbsp;&amp;nbsp; PASSED" style="text;html=1;align=center;verticalAlign=middle;whiteSpace=wrap;rounded=0;fontSize=15;" parent="1" vertex="1">
          <mxGeometry x="1000" y="585" width="72.5" height="30" as="geometry" />
        </mxCell>
        <mxCell id="71z2cc4TqB17SHWxZnwA-22" value="&amp;nbsp;FAILED&amp;nbsp; " style="text;html=1;align=center;verticalAlign=middle;whiteSpace=wrap;rounded=0;fontSize=15;" parent="1" vertex="1">
          <mxGeometry x="1000" y="545" width="72.5" height="30" as="geometry" />
        </mxCell>
        <mxCell id="71z2cc4TqB17SHWxZnwA-24" value="" style="endArrow=none;html=1;rounded=1;strokeWidth=3;fillColor=#dae8fc;gradientColor=#7ea6e0;strokeColor=#6c8ebf;fontSize=15;" parent="1" edge="1">
          <mxGeometry width="50" height="50" relative="1" as="geometry">
            <mxPoint x="-25" y="475.2200000000001" as="sourcePoint" />
            <mxPoint x="-5" y="475.50000000000006" as="targetPoint" />
            <Array as="points">
              <mxPoint x="-15" y="475.36000000000007" />
            </Array>
          </mxGeometry>
        </mxCell>
        <mxCell id="71z2cc4TqB17SHWxZnwA-25" value="" style="endArrow=none;html=1;rounded=1;strokeWidth=3;fillColor=#e1d5e7;strokeColor=#9673a6;fontSize=16;" parent="1" edge="1">
          <mxGeometry width="50" height="50" relative="1" as="geometry">
            <mxPoint x="-25" y="490.0800000000001" as="sourcePoint" />
            <mxPoint x="-5" y="490.36000000000007" as="targetPoint" />
          </mxGeometry>
        </mxCell>
        <mxCell id="71z2cc4TqB17SHWxZnwA-26" value="" style="endArrow=none;html=1;rounded=1;strokeWidth=3;fillColor=#ffe6cc;strokeColor=#d79b00;fontSize=15;" parent="1" edge="1">
          <mxGeometry width="50" height="50" relative="1" as="geometry">
            <mxPoint x="-25" y="505.22" as="sourcePoint" />
            <mxPoint x="-5" y="505.5" as="targetPoint" />
            <Array as="points">
              <mxPoint x="-25" y="505.5" />
              <mxPoint x="-15" y="505.22" />
            </Array>
          </mxGeometry>
        </mxCell>
        <mxCell id="71z2cc4TqB17SHWxZnwA-27" value="&lt;div style=&quot;font-size: 15px;&quot; align=&quot;left&quot;&gt;Short Reads&lt;/div&gt;&lt;div style=&quot;font-size: 15px;&quot; align=&quot;left&quot;&gt;Assembly&lt;/div&gt;&lt;div style=&quot;font-size: 15px;&quot; align=&quot;left&quot;&gt;Log Files&lt;br style=&quot;font-size: 15px;&quot;&gt;&lt;/div&gt;" style="text;html=1;align=left;verticalAlign=middle;whiteSpace=wrap;rounded=0;fontSize=15;" parent="1" vertex="1">
          <mxGeometry y="475.21999999999997" width="90" height="30" as="geometry" />
        </mxCell>
        <mxCell id="U-O4vmOPaMwUicfaSWRb-1" value="&lt;font style=&quot;font-size: 15px;&quot;&gt;Variability on assembler choice (more to come)&lt;/font&gt;" style="text;html=1;align=center;verticalAlign=middle;whiteSpace=wrap;rounded=0;fontSize=15;" parent="1" vertex="1">
          <mxGeometry x="-111" y="305.72" width="141" height="30" as="geometry" />
        </mxCell>
        <mxCell id="U-O4vmOPaMwUicfaSWRb-2" value="" style="endArrow=none;dashed=1;html=1;rounded=0;exitX=1;exitY=0;exitDx=0;exitDy=0;entryX=0.5;entryY=0;entryDx=0;entryDy=0;" parent="1" source="U-O4vmOPaMwUicfaSWRb-1" target="U-O4vmOPaMwUicfaSWRb-3" edge="1">
          <mxGeometry width="50" height="50" relative="1" as="geometry">
            <mxPoint x="322.5" y="-1" as="sourcePoint" />
            <mxPoint x="366.5" y="150" as="targetPoint" />
          </mxGeometry>
        </mxCell>
        <mxCell id="U-O4vmOPaMwUicfaSWRb-3" value="" style="ellipse;whiteSpace=wrap;html=1;aspect=fixed;rounded=1;rotation=0;strokeWidth=2;" parent="1" vertex="1">
          <mxGeometry x="389.4499999999999" y="191.82999999999998" width="4.55" height="4.55" as="geometry" />
        </mxCell>
        <mxCell id="gDuRvbBYZ5hsgJKslFJ1-8" value="" style="endArrow=none;html=1;rounded=1;strokeWidth=5;fontSize=16;entryX=0;entryY=0.5;entryDx=0;entryDy=0;fillColor=#e1d5e7;strokeColor=#9673a6;" parent="1" edge="1">
          <mxGeometry width="50" height="50" relative="1" as="geometry">
            <mxPoint x="520" y="270" as="sourcePoint" />
            <mxPoint x="584" y="380" as="targetPoint" />
            <Array as="points">
              <mxPoint x="520" y="380" />
            </Array>
          </mxGeometry>
        </mxCell>
        <mxCell id="gDuRvbBYZ5hsgJKslFJ1-10" value="" style="endArrow=none;html=1;rounded=1;strokeWidth=5;fontSize=16;entryX=0;entryY=0.5;entryDx=0;entryDy=0;fillColor=#e1d5e7;strokeColor=#9673a6;exitX=0.5;exitY=1;exitDx=0;exitDy=0;" parent="1" edge="1">
          <mxGeometry width="50" height="50" relative="1" as="geometry">
            <mxPoint x="520" y="194.54999999999995" as="sourcePoint" />
            <mxPoint x="584.39" y="500" as="targetPoint" />
            <Array as="points">
              <mxPoint x="520.39" y="500" />
            </Array>
          </mxGeometry>
        </mxCell>
        <mxCell id="gDuRvbBYZ5hsgJKslFJ1-11" value="" style="ellipse;whiteSpace=wrap;html=1;aspect=fixed;rounded=1;rotation=0;strokeWidth=2;fillColor=#e6d0de;gradientColor=#d5739d;strokeColor=#996185;" parent="1" vertex="1">
          <mxGeometry x="584.39" y="490" width="20" height="20" as="geometry" />
        </mxCell>
        <mxCell id="gDuRvbBYZ5hsgJKslFJ1-12" value="" style="ellipse;whiteSpace=wrap;html=1;aspect=fixed;rounded=1;rotation=0;strokeWidth=2;fillColor=#e6d0de;strokeColor=#996185;gradientColor=#d5739d;" parent="1" vertex="1">
          <mxGeometry x="510" y="174.55" width="20" height="20" as="geometry" />
        </mxCell>
        <mxCell id="gDuRvbBYZ5hsgJKslFJ1-16" style="edgeStyle=orthogonalEdgeStyle;rounded=0;orthogonalLoop=1;jettySize=auto;html=1;exitX=0.5;exitY=1;exitDx=0;exitDy=0;" parent="1" source="U-O4vmOPaMwUicfaSWRb-1" target="U-O4vmOPaMwUicfaSWRb-1" edge="1">
          <mxGeometry relative="1" as="geometry" />
        </mxCell>
      </root>
    </mxGraphModel>
  </diagram>
</mxfile>
